<?xml version="1.0" encoding="utf-8"?>
<!-- Generator: Adobe Illustrator 16.0.3, SVG Export Plug-In . SVG Version: 6.00 Build 0)  -->
<!DOCTYPE svg PUBLIC "-//W3C//DTD SVG 1.1//EN" "http://www.w3.org/Graphics/SVG/1.1/DTD/svg11.dtd">
<svg version="1.1" id="Layer_1" xmlns="http://www.w3.org/2000/svg" xmlns:xlink="http://www.w3.org/1999/xlink" x="0px" y="0px"
	 width="155px" height="100px" viewBox="0 0 155 100" enable-background="new 0 0 155 100" xml:space="preserve">
<g>
	<path fill="#FFFFFF" d="M5.498,68.063c4.151,2.127,10.53,4.253,17.11,4.253c7.088,0,10.834-2.936,10.834-7.39
		c0-4.254-3.24-6.684-11.44-9.62c-11.339-3.948-18.73-10.225-18.73-20.147c0-11.643,9.719-20.552,25.816-20.552
		c7.695,0,13.365,1.619,17.415,3.442l-3.442,12.454c-2.733-1.317-7.593-3.241-14.275-3.241c-6.682,0-9.922,3.038-9.922,6.582
		c0,4.353,3.847,6.277,12.655,9.618c12.048,4.455,17.717,10.732,17.717,20.35c0,11.44-8.807,21.161-27.537,21.161
		c-7.797,0-15.491-2.025-19.339-4.151L5.498,68.063z"/>
	<path fill="#FFFFFF" d="M139.229,2h-69.16C62.499,2,56.5,7.73,56.5,15.169v69.637C56.5,92.245,62.499,98,70.069,98h69.16
		c7.568,0,13.271-5.755,13.271-13.194V15.169C152.5,7.73,146.797,2,139.229,2z M87.5,83h-16V34h16V83z M78.766,28.375
		c-4.859,0-8.1-3.442-7.998-7.695c-0.102-4.455,3.139-7.795,8.1-7.795c4.962,0,8.099,3.34,8.2,7.795
		C87.067,24.933,83.829,28.375,78.766,28.375z M145.5,83h-15V56.521c0-6.379-2.227-10.732-7.797-10.732
		c-4.25,0-6.682,2.937-7.694,5.771c-0.404,0.912-0.509,2.431-0.509,3.848V83h-15V50.244C99.5,44.068,98.711,39,98.51,34h13.363
		l0.709,7h0.305c2.023-3,6.891-7.78,15.09-7.78c10.125,0,17.523,6.798,17.523,21.376V83z"/>
</g>
</svg>
