<?xml version="1.0" encoding="utf-8"?>
<!-- Generator: Adobe Illustrator 16.0.3, SVG Export Plug-In . SVG Version: 6.00 Build 0)  -->
<!DOCTYPE svg PUBLIC "-//W3C//DTD SVG 1.1//EN" "http://www.w3.org/Graphics/SVG/1.1/DTD/svg11.dtd">
<svg version="1.1" id="Layer_1" xmlns="http://www.w3.org/2000/svg" xmlns:xlink="http://www.w3.org/1999/xlink" x="0px" y="0px"
	 width="400px" height="100px" viewBox="0 0 400 100" enable-background="new 0 0 400 100" xml:space="preserve">
<g>
	<path fill="#0266C3" d="M11.628,66.428c3.498,2.012,8.743,3.76,14.251,3.76c6.907,0,10.754-3.234,10.754-8.043
		c0-4.46-2.973-7.082-10.492-9.793c-9.705-3.498-15.913-8.656-15.913-17.137c0-9.618,8.044-16.962,20.809-16.962
		c6.383,0,11.104,1.399,14.164,2.973l-2.623,8.656c-2.098-1.137-6.208-2.798-11.716-2.798c-6.82,0-9.792,3.672-9.792,7.082
		c0,4.546,3.41,6.645,11.279,9.705c10.229,3.847,15.213,9.005,15.213,17.487c0,9.442-7.169,17.661-22.383,17.661
		c-6.208,0-12.678-1.749-15.913-3.673L11.628,66.428z"/>
	<path fill="#0266C3" d="M68.805,23.411v12.153h10.229v8.043H68.805v18.798c0,5.158,1.399,7.869,5.508,7.869
		c1.836,0,3.235-0.263,4.197-0.525l0.175,8.219c-1.574,0.612-4.372,1.05-7.782,1.05c-3.934,0-7.257-1.312-9.268-3.497
		c-2.273-2.449-3.323-6.295-3.323-11.891V43.608h-6.12v-8.043h6.12v-9.618L68.805,23.411z"/>
	<path fill="#0266C3" d="M125.284,65.379c0,5.07,0.175,9.268,0.35,12.766h-9.443l-0.525-6.471h-0.175
		c-1.836,3.061-6.033,7.432-13.639,7.432c-7.782,0-14.864-4.634-14.864-18.535V35.564h10.754v23.17
		c0,7.082,2.273,11.628,7.956,11.628c4.284,0,7.082-3.06,8.219-5.771c0.35-0.961,0.612-2.098,0.612-3.322V35.564h10.754V65.379z"/>
	<path fill="#0266C3" d="M176.164,16.067v50.099c0,4.371,0.175,9.093,0.35,11.979h-9.617l-0.438-6.732h-0.175
		c-2.536,4.721-7.694,7.693-13.902,7.693c-10.142,0-18.186-8.656-18.186-21.771c-0.087-14.251,8.831-22.732,19.061-22.732
		c5.858,0,10.055,2.448,11.978,5.596h0.175V16.067H176.164z M165.41,53.313c0-0.873-0.088-1.923-0.263-2.797
		c-0.961-4.197-4.372-7.606-9.268-7.606c-6.907,0-10.754,6.12-10.754,14.077c0,7.781,3.847,13.464,10.667,13.464
		c4.372,0,8.218-2.973,9.268-7.605c0.262-0.963,0.35-2.012,0.35-3.148V53.313z"/>
	<path fill="#0266C3" d="M195.307,59.871c0.262,7.693,6.294,11.016,13.115,11.016c4.983,0,8.568-0.699,11.803-1.924l1.574,7.433
		c-3.672,1.486-8.743,2.623-14.863,2.623c-13.814,0-21.946-8.481-21.946-21.509c0-11.803,7.169-22.907,20.809-22.907
		c13.814,0,18.361,11.366,18.361,20.722c0,2.011-0.176,3.584-0.35,4.547H195.307z M214.018,52.352
		c0.088-3.935-1.661-10.405-8.83-10.405c-6.646,0-9.443,6.033-9.88,10.405H214.018z"/>
	<path fill="#0266C3" d="M232.811,48.242c0-4.896-0.087-9.006-0.35-12.678h9.443l0.524,6.382h0.263
		c1.836-3.322,6.47-7.344,13.552-7.344c7.432,0,15.126,4.809,15.126,18.273v25.269h-10.754V54.1c0-6.12-2.273-10.754-8.132-10.754
		c-4.284,0-7.257,3.06-8.394,6.295c-0.35,0.961-0.438,2.273-0.438,3.498v25.006h-10.842V48.242z"/>
	<path fill="#0266C3" d="M294.709,23.411v12.153h10.23v8.043h-10.23v18.798c0,5.158,1.399,7.869,5.509,7.869
		c1.836,0,3.235-0.263,4.196-0.525l0.176,8.219c-1.574,0.612-4.372,1.05-7.782,1.05c-3.935,0-7.257-1.312-9.268-3.497
		c-2.273-2.449-3.323-6.295-3.323-11.891V43.608h-6.119v-8.043h6.119v-9.618L294.709,23.411z"/>
	<path fill="#0266C3" d="M391,18.476C391,12.69,386.158,8,380.457,8h-62.134C312.622,8,308,12.69,308,18.476v63.049
		C308,87.311,312.622,92,318.323,92h62.134C386.158,92,391,87.311,391,81.524V18.476z M329,79h-11V37h11V79z M323.178,30.444
		c-3.533,0-5.859-2.536-5.859-5.771c0-3.322,2.412-5.858,5.945-5.858c3.619,0,5.859,2.536,5.945,5.858
		C329.209,27.908,326.883,30.444,323.178,30.444z M378,79h-11V55.1c0-6.12-2.052-10.754-7.825-10.754
		c-4.222,0-7.388,3.06-8.508,6.295c-0.345,0.961-0.667,2.273-0.667,3.498V79h-10V49.242c0-4.896-0.109-9.242-0.368-12.242h9.306
		l0.518,6h0.258c1.811-3,6.389-7.371,13.368-7.371c7.323,0,14.919,4.782,14.919,18.247V79z"/>
</g>
</svg>
